<?xml version="1.0" encoding="UTF-8" standalone="no"?>
<!DOCTYPE svg PUBLIC "-//W3C//DTD SVG 1.1//EN"
  "http://www.w3.org/Graphics/SVG/1.1/DTD/svg11.dtd">
<svg xmlns="http://www.w3.org/2000/svg" width="512" height="512">
  <g fill-rule="evenodd" clip-rule="evenodd">
    <path fill="#249afc" d="M512 256.004C512 397.341 397.427 512 256.205 512 114.577 512 0 397.341 0 256.004 0 114.668 114.577 0 256.205 0 397.427 0 512 114.668 512 256.004z"/>
    <path fill="#f1f3f7" d="M403.002 199.864c-13.922-21.895-13.922-49.371-.394-71.267H147.989c-19.485 0-35.398 15.929-35.398 35.434 0 19.513 16.308 35.434 35.398 35.833h255.013zm-30.233 17.912c-2.796-.793-5.576-1.193-8.359-1.193H109.414c13.922 21.5 13.922 49.372.395 71.271h254.203c19.49 0 35.402-15.924 35.402-35.438-.001-16.719-11.526-30.652-26.645-34.64zm31.032 158.462c-13.528-21.5-13.927-49.37-.399-71.27H147.989c-19.485 0-35.398 15.924-35.398 35.438 0 19.509 16.308 35.832 35.398 35.832h255.812z"/>
    <path fill="#e6e9ee" d="M396.629 360.714c0-.799-.395-1.193-.395-1.996h-278.08c0 .396.398.803.398 1.197.396 0 .794.399 1.205.799h276.872zm-1.587-6.374c-.399-.794-.399-1.193-.399-1.996H114.976c0 .803.395 1.202.395 1.996h279.671zm-1.192-6.77v-1.588H112.986c.398.395.398 1.193.398 1.588H393.85zm-.4-6.37v-1.987H112.591v1.988H393.45zm.4-6.37v-1.987H113.385c0 .795 0 1.192-.398 1.987H393.85zm.793-6.769c0-.399.399-1.192.399-1.592H115.77c-.399.399-.794 1.192-.794 1.592h279.667zm1.591-6.371c0-.798.395-1.192.395-1.99H119.347c-.398.798-.794 1.192-1.192 1.99h278.079z"/>
    <path fill="#ff7058" d="M112.591 340.406c0-19.514 15.913-35.438 35.398-35.438h259.783v-8.358H147.989c-24.255 0-44.156 19.509-44.156 43.796 0 24.682 19.901 44.189 44.156 44.189h259.783v-8.357H147.989c-19.091 0-35.398-16.323-35.398-35.832z"/>
    <path fill="#324a5e" d="M188.572 355.932v52.551l-19.49-16.719-20.694 18.311v-54.143z"/>
    <path fill="#e6e9ee" d="M116.563 272.724c.398-.794.398-1.193.798-1.988H395.44c-.398.396-.398.795-.798.795 0 .399-.394.794-.793 1.193H116.563zm1.99-6.769c0-.396 0-1.194.396-1.589H398.62c-.398.395-.398 1.193-.798 1.589H118.553zm.794-6.371c.411-.398.411-1.193.411-1.987h280.448c0 .794 0 1.589-.395 1.987H119.347zm.411-6.37v-1.992h280.848v1.991H119.758zm0-6.769c0-.399-.411-1.194-.411-1.593h280.465c.395.399.395 1.193.395 1.593H119.758zm-.81-6.374c-.396-.794-.396-1.194-.396-1.988h279.269c0 .794.399 1.193.798 1.988H118.948zm-1.587-6.362c-.399-.803-.399-1.202-.798-1.996H393.85c.399.794.793 1.193 1.192 1.996H117.361z"/>
    <path fill="#4cdbc4" d="M364.409 228.928v52.551l-19.488-16.319-20.695 18.312v-54.544z"/>
    <path fill="#e6e9ee" d="M395.836 184.737c-.396-.798-.396-1.193-.794-1.991h-278.08c.399.399.399.798.794.798 0 .396.398.794.797 1.193h277.283zm-1.986-6.768c0-.399 0-1.194-.399-1.592H113.783c.396.398.396 1.193.794 1.592H393.85zm-.793-6.374c0-.396-.399-1.194-.399-1.988H112.192c0 .794 0 1.592.398 1.988h280.467zm-.4-6.37v-1.988H111.798v1.987h280.859zm0-6.769c0-.395.399-1.194.399-1.589H112.591c0 .395-.398 1.194-.398 1.589h280.464zm.793-6.362c.399-.399.399-1.202.399-1.996H114.577c0 .794-.398 1.597-.794 1.996H393.45zm1.592-6.375c.398-.794.398-1.193.794-1.996H118.553c-.398.803-.797 1.202-1.191 1.996h277.68z"/>
    <path fill="#324a5e" d="M399.413 252.416c0 19.514-15.912 35.438-35.402 35.438H104.232v8.357H364.01c24.275 0 44.16-19.908 44.16-44.19 0-24.287-19.885-44.195-44.16-44.195H104.232v8.362H364.01c19.491.395 35.403 16.32 35.403 36.228z"/>
    <path fill="#ffd05b" d="M112.591 164.031c0-19.505 15.913-35.434 35.398-35.434h259.783v-8.361H147.989c-24.255-.396-43.757 19.513-43.757 43.795 0 24.286 19.896 44.194 44.155 44.194H408.17v-8.361H147.989c-19.091-.399-35.398-16.32-35.398-35.833z"/>
    <path fill="#ff7058" d="M188.572 143.329v52.556l-19.49-16.328-20.694 18.319v-54.547z"/>
  </g>
</svg>
